<?xml version="1.0" encoding="utf-8"?>
<!-- Generator: Adobe Illustrator 19.1.0, SVG Export Plug-In . SVG Version: 6.00 Build 0)  -->
<svg version="1.1" id="Layer_1" xmlns="http://www.w3.org/2000/svg" xmlns:xlink="http://www.w3.org/1999/xlink" x="0px" y="0px"
	 viewBox="0 0 36 36" style="enable-background:new 0 0 36 36;" xml:space="preserve">
<style type="text/css">
	.st0{fill:#010101;}
</style>
<path class="st0" d="M35.6,35.6c-0.3,0.3-0.6,0.4-1,0.4c-0.4,0-0.7-0.1-1-0.4L18,20L2.4,35.6c-0.5,0.5-1.4,0.5-2,0
	c-0.5-0.5-0.5-1.4,0-2L16,18L0.4,2.4c-0.5-0.5-0.5-1.4,0-2s1.4-0.5,2,0L18,16L33.6,0.4c0.5-0.5,1.4-0.5,2,0C35.9,0.7,36,1,36,1.4
	c0,0.4-0.1,0.7-0.4,1L20,18l15.6,15.6C36.1,34.2,36.1,35,35.6,35.6z"/>
</svg>
