<svg id="Layer_2" data-name="Layer 2" xmlns="http://www.w3.org/2000/svg" viewBox="0 0 300 300"><title>icons</title><rect x="36.98" y="229.73" width="170.23" height="14.38" rx="6.15" ry="6.15"/><rect x="36.98" y="61.42" width="170.23" height="14.38" rx="6.15" ry="6.15"/><path d="M108.16,207.69H260.41a9.21,9.21,0,0,0,9.18-9.18V105.94a9.21,9.21,0,0,0-9.18-9.18H108.16A9.21,9.21,0,0,0,99,105.94v92.57A9.21,9.21,0,0,0,108.16,207.69Zm2.3-101H258.12V197H110.46V106.7Z"/><rect x="36.98" y="187.66" width="47.23" height="14.38" rx="6.15" ry="6.15"/><rect x="36.98" y="145.58" width="47.23" height="14.38" rx="6.15" ry="6.15"/><rect x="36.98" y="103.5" width="47.23" height="14.38" rx="6.15" ry="6.15"/></svg>