<?xml version="1.0" standalone="no"?>
<!DOCTYPE svg PUBLIC "-//W3C//DTD SVG 1.1//EN" "http://www.w3.org/Graphics/SVG/1.1/DTD/svg11.dtd" >
<svg xmlns="http://www.w3.org/2000/svg" xmlns:xlink="http://www.w3.org/1999/xlink" version="1.1">
<metadata>
Created by FontForge 20141127 at Thu Jan 14 12:24:28 2016
 By Miles Dickson
Copyright (c) 2016, Miles Dickson
</metadata>
<defs>
<font id="bcsicons" horiz-adv-x="448" >
  <font-face 
    font-family="bcsicons"
    font-weight="400"
    font-stretch="normal"
    units-per-em="512"
    panose-1="2 0 5 3 0 0 0 0 0 0"
    ascent="448"
    descent="-64"
    bbox="-1 -64.5 512.014 449"
    underline-thickness="25"
    underline-position="-52"
    unicode-range="U+E001-E04B"
  />
<missing-glyph horiz-adv-x="187" d="M17 0v341h136v-341h-136zM34 17h102v307h-102v-307z" />
    <glyph glyph-name=".notdef" horiz-adv-x="187" d="M17 0v341h136v-341h-136zM34 17h102v307h-102v-307z" />
    <glyph glyph-name=".null" horiz-adv-x="0"  />
    <glyph glyph-name="nonmarkingreturn" horiz-adv-x="170"  />
    <glyph glyph-name="uniE001" unicode="&#xe001;" horiz-adv-x="512" d="M0 448zM441 15h-1q-76 -79 -184 -79q-106 0 -181 75t-75 181t75 181t181 75t181 -75t75 -181q0 -103 -71 -177zM16 192q0 -98 66 -167v30q0 18 78 46q35 13 48.5 26.5t13.5 36.5q0 8 -9 18t-12 28q-1 4 -8.5 9.5t-8.5 23.5q0 6 2 10t4 5l1 1q-4 18 -5 33q-2 20 15.5 43t60.5 23t60 -22.5t15 -43.5l-5 -33q7 -3 7 -16q-1 -18 -8.5 -23.5t-8.5 -9.5q-3 -18 -12 -28t-9 -18q0 -23 13.5 -36.5t48.5 -26.5q78 -28 78 -46v-17q55 66 55 154q0 100 -70 170.5t-170 70.5t-170 -70.5t-70 -170.5zM256 -49q93 0 162 63h-324q69 -63 162 -63z" />
    <glyph glyph-name="uniE002" unicode="&#xe002;" horiz-adv-x="320" d="M-96 448zM311 233l-129 -128q-9 -9 -22 -9t-22 9q-118 116 -129 128q-8 9 -8.5 22t8.5 23q20 22 43 0l108 -106l108 106q23 22 43 0q9 -10 8.5 -23t-8.5 -22z" />
    <glyph glyph-name="uniE003" unicode="&#xe003;" horiz-adv-x="192" d="M-160 448zM137 343q9 8 22 8.5t23 -8.5q22 -20 0 -43l-106 -108l106 -108q22 -23 0 -43q-10 -9 -23 -8.5t-22 8.5l-128 129q-9 9 -9 22t9 22q116 118 128 129z" />
    <glyph glyph-name="uniE004" unicode="&#xe004;" horiz-adv-x="192" d="M-160 448zM55 343l128 -129q9 -9 9 -22t-9 -22q-116 -118 -128 -129q-9 -8 -22 -8.5t-23 8.5q-22 20 0 43l106 108l-106 108q-22 23 0 43q10 9 23 8.5t22 -8.5z" />
    <glyph glyph-name="uniE005" unicode="&#xe005;" horiz-adv-x="320" d="M-96 448zM311 151q8 -9 8.5 -22t-8.5 -23q-20 -22 -43 0l-108 106l-108 -106q-23 -22 -43 0q-9 10 -8.5 23t8.5 22l129 128q9 9 22 9t22 -9q118 -116 129 -128z" />
    <glyph glyph-name="uniE006" unicode="&#xe006;" d="M169 136v-34l-99 40v33zM169 239v-34l-99 40v34zM437 412q11 -8 11 -21v-319q0 -16 -16 -23l-198 -79q-4 -1 -5 -1t-2.5 -0.5t-2.5 -0.5t-2.5 0.5t-2.5 0.5l-5 1l-198 79q-16 7 -16 24v318q0 13 11 21q10 7 23 2l190 -76l190 76q13 5 23 -2zM199 19v279l-159 64v-279zM408 83v279l-159 -64v-279zM378 175v-33l-99 -40v34zM378 279v-34l-99 -40v34z" />
    <glyph glyph-name="uniE007" unicode="&#xe007;" d="M-32 448zM316 307q-15 0 -26.5 11t-11.5 27t11.5 27.5t26.5 11.5t26.5 -11.5t11.5 -27.5t-11.5 -27t-26.5 -11zM360 184q36 -2 61.5 -29t26.5 -62q0 -39 -27 -66t-65 -27t-65 27t-27 66q0 33 20 58t50 33l-32 59q-11 24 -34 24q-11 -2 -15 -5q-6 -3 -7 -4q-13 -10 -13 -27v-6q0 -92 -49 -129v-3q0 -39 -27 -66t-65 -27t-65 27t-27 66t27 66.5t65 27.5q1 0 19 -3q1 24 16 53q18 36 44 57q29 26 62 26q50 0 83 -56zM94 25q25 0 43 17t21 43q-8 0 -15 7q-30 15 -32 64q-1 0 -7 1.5t-10 1.5q-28 0 -47 -19.5t-19 -47.5t19 -47.5t47 -19.5zM205 178q2 18 -6.5 31.5t-22.5 14.5t-24 -10.5t-11 -29.5q-2 -18 6 -31.5t21 -14.5q14 -1 25 10.5t12 29.5zM354 25q28 0 47 19.5t19 47.5t-19 47.5t-47 19.5t-47 -19.5t-19 -47.5t19 -47.5t47 -19.5z" />
    <glyph glyph-name="uniE008" unicode="&#xe008;" horiz-adv-x="416" d="M197 227v-229l-197 69v230l181 -64zM220 227l15 6l181 64v-230l-196 -69v229zM301 276l-90 -33l-5 2l-15 6l-135 48l-47 16l90 34l107 -40zM408 314l-9 -3l-71 -26l-122 44l-80 29l71 25l9 3h2z" />
    <glyph glyph-name="uniE009" unicode="&#xe009;" horiz-adv-x="384" d="M384 284v0v-316h-384v316h1l-1 1l83 131l11 -7l-80 -125h348l-117 78l7 10l132 -87v-1zM160 272v-79l10 10l12 -13l13 20l11 -11l9 5l9 -7v75h-64zM224 -20v77l-10 -10l-11 13l-14 -20l-11 11l-8 -5l-10 7v-73h64zM369 -20v292h-137v-88l-18 11l-9 -5l-9 8l-13 -20l-13 14l-18 -17v97h-137v-292h137v86l18 -11l9 5l9 -8l13 20l13 -14l18 17v-95h137z" />
    <glyph glyph-name="uniE00A" unicode="&#xe00a;" horiz-adv-x="416" d="M-48 448zM364 372q22 0 37 -14.5t15 -35.5v-176q0 -21 -15 -36t-37 -15h-104v-75l-104 75h-104q-22 0 -37 15t-15 36v176q0 21 15 35.5t37 14.5h312z" />
    <glyph glyph-name="uniE00B" unicode="&#xe00b;" horiz-adv-x="470" d="M321 275l75 73l38 -36l36 -36l-102 -100q-180 -177 -184 -179q-2 -1 -93 88.5t-91 91.5q0 4 36 38l36 36l40 -39q71 -71 72 -70q3 1 137 133z" />
    <glyph glyph-name="uniE00C" unicode="&#xe00c;" horiz-adv-x="320" d="M-96 448zM119 32q-18 0 -27 14l-85 119q-8 11 -6.5 25.5t12.5 23.5t25 6.5t22 -13.5l56 -78l142 238q8 12 21 15.5t25 -3.5t15.5 -22t-4.5 -27l-167 -281q-9 -15 -27 -17h-2z" />
    <glyph glyph-name="uniE00D" unicode="&#xe00d;" horiz-adv-x="392" d="M392 -4h-392v392h392v-392zM137 135l-24 27l-9 10l1 -1l21 -23l23 -24zM148 124l9 -10l-2 1zM282 275q-14 11 -21 1l-17 -22l-29 -38l-21 -29l-24 -31q0 -2 -3 -2q-1 0 -3 2l-16 18l-18 20q-8 11 -20 -5q-13 -13 -8 -18l9 -11l26 -27l11 -10l9 -9l7 -8q3 -3 5 -3h1v0q3 0 3 2q2 0 5 3l13 18v1l8 11l22 30l21 29l26 34l18 24q10 9 -4 20z" />
    <glyph glyph-name="uniE00E" unicode="&#xe00e;" horiz-adv-x="392" d="M392 -4h-392v392h392v-392zM384 380h-376v-376h376v376z" />
    <glyph glyph-name="uniE00F" unicode="&#xe00f;" horiz-adv-x="500" d="M500 9q0 -28 -19.5 -47.5t-47.5 -19.5h-366q-28 0 -47.5 19.5t-19.5 47.5v366q0 28 19.5 47.5t47.5 19.5h366q28 0 47.5 -19.5t19.5 -47.5v-366zM157 63l-18 20l-48 51l-18 19l1 -1q0 -2 1 -2l40 -42zM175 45l-18 18l15 -16zM426 311q12 17 -15 37t-39 4l-31 -42l-53 -71l-41 -54l-45 -60q-3 -3 -5 -3q-3 0 -6 3l-31 33l-35 38q-14 15 -39 -8q-23 -21 -13 -35l19 -19l47 -51l19 -20l17 -18l13 -14q5 -5 8 -6l2 -1h2h1h1q2 0 6 2q5 2 8 6l26 35l2 2l15 20l42 56l40 54l50 66z" />
    <glyph glyph-name="uniE010" unicode="&#xe010;" horiz-adv-x="500" d="M433 430h-366q-23 0 -39 -16t-16 -39v-366q0 -23 16 -39t39 -16h366q23 0 39 16t16 39v366q0 23 -16 39t-39 16zM433 442q28 0 47.5 -19.5t19.5 -47.5v-366q0 -28 -19.5 -47.5t-47.5 -19.5h-366q-28 0 -47.5 19.5t-19.5 47.5v366q0 28 19.5 47.5t47.5 19.5h366z" />
    <glyph glyph-name="uniE011" unicode="&#xe011;" horiz-adv-x="416" d="M-48 448zM208 400q86 0 147 -61t61 -147t-61 -147t-147 -61t-147 61t-61 147t61 147t147 61zM251 192l76 76l-43 43l-76 -76l-76 76l-43 -43l76 -76l-76 -76l43 -43l76 76l76 -76l43 43z" />
    <glyph glyph-name="uniE012" unicode="&#xe012;" horiz-adv-x="512" d="M506 -58q-6 -6 -14 -6t-14 6l-222 222l-222 -222q-13 -13 -29 0q-12 12 0 28l222 222l-222 222q-12 12 0 28q11 14 29 0l222 -222l222 222q12 12 28 0q6 -6 6 -14t-6 -14l-222 -222l222 -222q11 -14 0 -28z" />
    <glyph glyph-name="uniE013" unicode="&#xe013;" horiz-adv-x="256" d="M-128 448zM246 114q22 -20 0 -41q-10 -9 -23 -9t-23 9l-72 74l-72 -74q-10 -9 -23 -9t-23 9q-22 21 0 41l75 78l-75 78q-22 20 0 41q10 9 23 9t23 -9l72 -74l72 74q10 9 23 9t23 -9q22 -21 0 -41l-75 -78z" />
    <glyph glyph-name="uniE014" unicode="&#xe014;" horiz-adv-x="384" d="M-64 448zM0 352h384v-32h-384v32zM0 256h288v-32h-288v32zM0 160h384v-32h-384v32zM0 64h224v-32h-224v32z" />
    <glyph glyph-name="uniE015" unicode="&#xe015;" horiz-adv-x="223" d="M220 118q-8 -33 -30 -49q-22 -18 -57 -23v-50h-37v50h-9q-40 3 -76 30q-1 2 -5 5t-6 4l18 18l12 12l15 15q28 -28 68 -28q38 4 38 30q0 13 -12 22t-41 18q-36 12 -54 28q-32 24 -32 58v8v3l3 13q8 26 30 41q12 8 30 13q2 1 6 2.5t7.5 2.5t7.5 2v45h36v-50q38 -3 73 -26q3 -2 7 -6l-13 -13l-14 -15l-13 -15q-29 19 -55 19q-15 0 -25 -6q-2 1 -2 -1q-6 -6 -6 -15q0 -8 5 -15q1 -1 2 -2.5t2 -2.5q6 -6 48 -22q82 -26 82 -86q0 -1 -1 -6t-2 -8zM92 243l-5 5z" />
    <glyph glyph-name="uniE016" unicode="&#xe016;" horiz-adv-x="384" d="M-64 448zM354 354q16 -16 23.5 -32t6.5 -24v-7l-267 -266l-117 -25l25 117l266 267q28 6 63 -30zM110 39l12 11q0 22 -25 47q-11 11 -22.5 17.5t-17.5 7.5h-6l-12 -12l-9 -40q14 -8 23 -17q11 -12 17 -23z" />
    <glyph glyph-name="uniE017" unicode="&#xe017;" d="M-32 448zM15 309q-16 9 -14 20q3 6 12 7h422q19 0 10 -16q-5 -7 -12 -11q-8 -5 -94 -51t-92 -49q-10 -5 -23 -5t-23 5q-6 3 -92 49t-94 51zM438 259q10 5 10 -5v-182q0 -8 -8.5 -16t-16.5 -8h-398q-8 0 -16.5 8t-8.5 16v182q0 10 10 5q8 -4 98 -51t93 -49q10 -5 23 -5t23 5q3 2 93 49t98 51z" />
    <glyph glyph-name="uniE018" unicode="&#xe018;" horiz-adv-x="256" d="M-128 448zM256 338h-73q-7 0 -12.5 -7.5t-5.5 -18.5v-51h91v-73h-91v-220h-87v220h-78v73h78v43q0 47 30 79.5t75 32.5h73v-78z" />
    <glyph glyph-name="uniE019" unicode="&#xe019;" horiz-adv-x="512" d="M376 137q16 0 28.5 -10t17.5 -24h90v-28h-90q-5 -14 -17 -23.5t-28 -9.5q-35 0 -45 33h-332v28h331q5 15 17.5 24.5t27.5 9.5zM376 64q11 0 18.5 7t6.5 18q0 10 -7 17t-18 7q-10 0 -17 -6.5t-7 -17.5t7 -18t17 -7zM180 292q35 0 45 -33h287v-29h-287q-5 -14 -17 -23.5t-28 -9.5q-35 0 -45 33h-135v29h135q5 14 17 23.5t28 9.5zM180 220q10 0 17.5 7t7.5 18t-7.5 18t-17.5 7t-17.5 -7t-7.5 -18t7.5 -18t17.5 -7zM422 415h90v-28h-90q-5 -15 -17.5 -24.5t-27.5 -9.5q-16 0 -28 9.5t-17 24.5h-332v28h331q5 14 17 23.5t28 9.5t28.5 -9.5t17.5 -23.5zM376 375q11 0 18.5 7.5t6.5 17.5q0 10 -7.5 17.5t-17.5 7.5t-17 -7t-7 -18t7 -18t17 -7z" />
    <glyph glyph-name="uniE01A" unicode="&#xe01a;" horiz-adv-x="384" d="M-64 448zM0 320h64v-64h-64v64zM0 224h64v-64h-64v64zM0 128h64v-64h-64v64zM96 304h288v-32h-288v32zM96 208h288v-32h-288v32zM96 112h288v-32h-288v32z" />
    <glyph glyph-name="uniE01B" unicode="&#xe01b;" horiz-adv-x="352" d="M-80 448zM50 115q10 0 17.5 -7.5t7.5 -17.5q0 -11 -7.5 -18.5t-17.5 -7.5h-25q-10 0 -17.5 7.5t-7.5 18.5q0 10 7 17.5t18 7.5h25zM50 218q10 0 17.5 -7.5t7.5 -18.5t-7.5 -18.5t-17.5 -7.5h-25q-10 0 -17.5 7.5t-7.5 18.5t7.5 18.5t17.5 7.5h25zM50 320q10 0 17.5 -7.5t7.5 -18.5q0 -10 -7.5 -17.5t-17.5 -7.5h-25q-11 0 -18 7.5t-7 17.5q0 11 7.5 18.5t17.5 7.5h25zM151 269q-11 0 -18 7.5t-7 17.5q0 11 7.5 18.5t17.5 7.5h176q10 0 17.5 -7.5t7.5 -18.5q0 -10 -7 -17.5t-18 -7.5h-176zM327 218q10 0 17.5 -7.5t7.5 -18.5t-7.5 -18.5t-17.5 -7.5h-176q-10 0 -17.5 7.5t-7.5 18.5t7.5 18.5t17.5 7.5h176zM327 115q11 0 18 -7.5t7 -17.5q0 -11 -7.5 -18.5t-17.5 -7.5h-176q-10 0 -17.5 7.5t-7.5 18.5q0 10 7 17.5t18 7.5h176z" />
    <glyph glyph-name="uniE01C" unicode="&#xe01c;" d="M-32 448zM435 332q7 3 11 -0.5t0 -9.5q-48 -73 -82 -112.5t-54.5 -47.5t-36 -1.5t-30.5 19.5t-31.5 21t-46 -2t-68.5 -45l44 -186h-50l-91 380l46 17q45 35 75.5 45.5t48.5 2t31.5 -26.5t30.5 -37.5t39.5 -32.5t64.5 -10.5t99 26.5z" />
    <glyph glyph-name="uniE01D" unicode="&#xe01d;" horiz-adv-x="512" d="M0 448zM512 -32h-115v76q0 27 -15.5 41t-78.5 45q21 14 21 43q0 8 -7 17t-10 26q-1 4 -7 8.5t-7 21.5l5 14q-3 18 -4 31q-1 20 13 40.5t49 20.5t48.5 -20.5t12.5 -40.5l-4 -31q6 -2 6 -14q-1 -17 -7.5 -21.5t-7.5 -8.5q-3 -17 -9.5 -26t-6.5 -17q0 -21 11 -33.5t39 -24.5q57 -24 67 -41q3 -4 4.5 -30.5t2.5 -51.5v-24zM262 101q94 -39 94 -63v-70h-356v93q0 23 43 40q38 16 52.5 32.5t14.5 44.5q0 10 -9 22t-13 35q-1 5 -9 11t-10 29q0 7 1.5 12t3.5 7l2 1q-4 23 -5 41q-2 25 16.5 52.5t64.5 27.5t65 -27.5t17 -52.5l-5 -41q7 -4 7 -20q-2 -23 -10 -29t-9 -11q-4 -23 -13 -35t-9 -22q0 -28 14.5 -44.5t52.5 -32.5z" />
    <glyph glyph-name="uniE01E" unicode="&#xe01e;" horiz-adv-x="395" d="M355 192q0 -34 40 -59q-6 -17 -17 -39q-34 8 -63 -21q-26 -24 -17 -63q-10 -7 -39 -17q-23 38 -62 38q-38 0 -61 -38q-21 8 -40 17q9 38 -16 63q-24 26 -63 17q-7 10 -17 39q38 23 38 61q0 35 -38 58q6 18 17 39q34 -8 63 21q25 24 16 63q9 6 40 17q23 -38 61 -38q39 0 62 38q13 -4 38 -15q-9 -37 16 -63q28 -30 63 -22q7 -10 17 -39q-38 -23 -38 -57zM197 106q35 0 60.5 25t25.5 61t-25.5 61t-60.5 25q-36 0 -61 -25.5t-25 -60.5q0 -36 25.5 -61t60.5 -25z" />
    <glyph glyph-name="uniE01F" unicode="&#xe01f;" horiz-adv-x="377" d="M319 370q24 0 41 -17t17 -41v-174q0 -24 -17 -41t-41 -17h-145l-87 -87v87h-29q-41 0 -55 41q-3 7 -3 17v52v122q0 24 17 41t41 17h261zM184 127q23 0 23 20q1 10 -5.5 16.5t-16.5 6.5q-9 1 -15.5 -5t-6.5 -16t6 -16t15 -6zM242 240q8 11 8 26q0 26 -18 40q-17 13 -46 13q-21 0 -36 -9q-22 -15 -24 -50h36q0 11 6 20q5 9 20 9q14 0 20 -7q5 -6 5 -17q0 -7 -6 -15q-3 -4 -7 -7q-19 -12 -28 -22q-5 -6 -5 -27q0 -3 3 -3h28q3 0 3 3q0 7 1 10q2 6 11 13l10 6q15 12 19 17z" />
    <glyph glyph-name="uniE020" unicode="&#xe020;" horiz-adv-x="416" d="M-48 448zM63 226v-145q-5 5 -6 9l-56 179q-7 21 14 26l277 88q9 3 17 -1t10 -13l38 -122h-273q-9 0 -15 -6t-6 -15zM254 99q7 -1 12 -6q3 -9 3 -10q0 -8 -4 -12t-11 -6v34zM234 152q2 7 8 8v-32q-7 2 -8 6q0 1 -1 3q-2 4 -2 6t2 6q1 2 1 3zM395 229q9 0 15.5 -6t5.5 -15v-187q0 -9 -6 -15t-15 -6h-291q-20 0 -20 21v187q0 21 20 21h291zM281 59q10 10 10 28q0 13 -7 24q-6 9 -28 15v34q8 -4 10 -15l22 3q-1 11 -10 20q-12 8 -22 9v9h-14v-9q-12 -1 -23 -12q-9 -9 -9 -23q0 -16 7 -24q12 -12 25 -15v-35q-2 0 -8 7q-4 4 -6 12l-24 -3q1 -15 12 -26t25 -12v-16h13v16q17 1 27 13z" />
    <glyph glyph-name="uniE021" unicode="&#xe021;" horiz-adv-x="352" d="M-80 448zM42 295q4 0 6.5 2.5t1.5 6.5q0 8 -9 8t-9 -10q0 -7 10 -7zM341 67q-4 -16 0.5 -42t10.5 -35l-5 -6h-29q-9 4 -10 6q-1 1 -1 3t0.5 5t0.5 5q4 43 -20.5 73t-55.5 34q-111 11 -138 -110l-3 -13h-28q-9 4 -9 8q-1 5 1.5 20t5.5 38.5t4 41.5q-33 40 -18 82q3 9 11 27.5t10 24.5q4 14 -11 18q-6 2 -12 -2q-8 -4 -8 -13q-1 -5 0.5 -11t-0.5 -11q-1 -4 -6.5 -9.5t-10.5 -8.5l-4 -4q7 14 7 22q0 6 -4 14l-4 8q-2 6 -2.5 10.5t-0.5 5.5l1 2q-8 3 -13 11q7 13 11 35q6 30 13 42q46 67 137 62q46 -3 92.5 -31.5t67.5 -91.5q-62 78 -141 84q105 -31 136 -129q-30 44 -69 67t-73 18q-12 0 -25 -8.5t-13 -26.5q0 -43 73 -53q10 -2 34.5 -3.5t35.5 -2.5q28 -6 47.5 -27t19.5 -40q0 -18 -12 -38q-17 -22 7 -51z" />
    <glyph glyph-name="uniE022" unicode="&#xe022;" d="M-32 448zM24 304q0 30 12.5 52.5t28 33.5t34.5 17.5t28 7.5t13 1h115v-3q0 -12 -39 -17l-19 -4q20 -11 27 -29t7 -49q0 -48 -34 -80q-19 -17 -19 -27t25 -33q16 -15 24.5 -23.5t18 -27.5t9.5 -40q0 -71 -58 -99q-32 -16 -75 -16h-4h-2q-13 0 -27 2.5t-37 10.5t-37.5 29t-14.5 52t16 51.5t41.5 29t44 11.5t35.5 3h1q-8 11 -12 24t-4 20l1 7h-7q-32 0 -55 15q-37 24 -37 81zM209 75q-2 26 -22 42.5t-51 16.5h-8q-35 -3 -57 -24q-22 -19 -20 -47q1 -27 25.5 -41.5t59.5 -12.5q34 2 54 20.5t19 45.5zM179 329q-9 31 -23 43t-38 12q-7 0 -10 -1q-20 -6 -29 -31q-8 -24 -1 -54q7 -26 23.5 -43.5t35.5 -17.5q6 0 9 1q21 6 31 33.5t2 57.5zM373 241h75v-49h-75v-76h-47v76h-75v49h75v76h47v-76z" />
    <glyph glyph-name="uniE023" unicode="&#xe023;" horiz-adv-x="384" d="M-64 448zM0 352h128v-128h-128v128zM0 160h128v-128h-128v128zM160 336h224v-32h-224v32zM160 272h224v-32h-224v32zM160 144h224v-32h-224v32zM160 80h224v-32h-224v32z" />
    <glyph glyph-name="uniE024" unicode="&#xe024;" horiz-adv-x="384" d="M-64 448zM0 384h105v-105h-105v105zM140 384h104v-105h-104v105zM279 384h105v-105h-105v105zM0 244h105v-104h-105v104zM140 244h104v-104h-104v104zM279 244h105v-104h-105v104zM0 105h105v-105h-105v105zM140 105h104v-105h-104v105zM279 105h105v-105h-105v105z" />
    <glyph glyph-name="uniE025" unicode="&#xe025;" d="M442 185q8 -7 5.5 -13t-13.5 -6h-42v-147q0 -19 -16 -19h-101v148h-102v-148h-97q-14 0 -17 4.5t-3 14.5v147h-42q-11 0 -13.5 6t5.5 13l199 191q7 8 19 8t19 -8z" />
    <glyph glyph-name="uniE026" unicode="&#xe026;" d="M359 192q0 18 -2 26h91v-180q0 -29 -20.5 -49.5t-49.5 -20.5h-308q-29 0 -49.5 20.5t-20.5 49.5v180h91q-2 -8 -2 -26q0 -56 39.5 -95.5t95.5 -39.5t95.5 39.5t39.5 95.5zM378 416q29 0 49.5 -20.5t20.5 -49.5v-76h-113q-39 57 -111 57q-70 0 -111 -57h-113v76q0 29 20.5 49.5t49.5 20.5h308zM412 330v37q0 13 -12 13h-38q-12 0 -12 -13v-37q0 -13 12 -13h38q12 0 12 13zM307 192q0 -34 -24.5 -58.5t-58.5 -24.5t-58.5 24.5t-24.5 58.5t24.5 58.5t58.5 24.5t58.5 -24.5t24.5 -58.5z" />
    <glyph glyph-name="uniE027" unicode="&#xe027;" d="M448 253v-1v-252h-448v384h19h299q4 0 7 -3l120 -121q3 -3 3 -7zM328 346v-82h82zM426 23v218h-120v121h-284v-339h404zM84 101h293v-17h-293v17zM84 158h293v-16h-293v16zM84 277h98v-17h-98v17zM84 237h98v-16h-98v16z" />
    <glyph glyph-name="uniE028" unicode="&#xe028;" d="M-32 448zM253 86v-32q36 -4 59 -15.5t23 -26.5q0 -18 -32.5 -31t-78.5 -13t-78.5 13t-32.5 31q0 15 23 26.5t59 15.5v32q0 24 -16.5 41.5t-55.5 42.5q-28 18 -43.5 30t-37 34.5t-32 52.5t-10.5 67q0 7 5.5 12t12.5 5h85q25 45 121 45t121 -45h85q7 0 12.5 -5t5.5 -12q0 -37 -10.5 -67t-32 -52.5t-37 -34.5t-43.5 -30q-39 -25 -55.5 -42.5t-16.5 -41.5zM322 209q40 27 63 55t27 73h-62q-3 -75 -28 -128zM224 386q-31 0 -54 -7.5t-32 -15.5t-9 -14t9 -14t32 -15.5t54 -7.5t54 7.5t32 15.5t9 14t-9 14t-32 15.5t-54 7.5zM36 337q4 -45 27 -73t63 -55q-25 53 -28 128h-62z" />
    <glyph glyph-name="uniE029" unicode="&#xe029;" d="M130 141h157q1 0 3 1h1v-42q0 -19 -13 -33t-32 -14h-112l-67 -69v69h-22q-19 0 -32 14t-13 33v138q0 19 13 32.5t32 13.5h85v-143zM403 400q19 0 32 -13.5t13 -32.5v-139q0 -19 -13 -32.5t-32 -13.5h-22v-69l-67 69h-157v185q0 19 13 32.5t32 13.5h201z" />
    <glyph glyph-name="uniE02A" unicode="&#xe02a;" horiz-adv-x="416" d="M-48 448zM374 384v-40h-187q-2 0 -2 -3v-130h122l8 -8v8h59q3 0 3 2v128q0 3 -3 3v40zM150 237h-108q-3 0 -3 -2v-128q0 -3 3 -3h59v-8l8 8h120q2 0 2 1v70h-81v62zM374 384q17 0 29.5 -13t12.5 -30v-128q0 -17 -12.5 -29.5t-29.5 -12.5h-20v-64l-63 64h-145v170q0 17 12 30t29 13h187zM174 277v-77h92h4v-93q0 -17 -12 -30t-29 -13h-104l-63 -64v64h-20q-17 0 -29.5 13t-12.5 30v128q0 17 12.5 29.5t29.5 12.5h132z" />
    <glyph glyph-name="uniE02B" unicode="&#xe02b;" horiz-adv-x="288" d="M144 416q59 0 101.5 -41.5t42.5 -99.5q0 -70 -105 -245l-31 -50l-8 -12l-8 12q-13 20 -31 50q-105 177 -105 245q0 58 42.5 99.5t101.5 41.5zM167 39q103 173 103 236q0 51 -37 87t-89 36t-89 -36t-37 -87q0 -63 103 -236q5 -9 13 -21t10 -16q2 4 10 16t13 21zM144 363q38 0 64 -25.5t26 -62.5t-26 -62.5t-64 -25.5t-64 25.5t-26 62.5t26 62.5t64 25.5zM144 205q30 0 51 20.5t21 49.5t-21 49.5t-51 20.5t-51 -20.5t-21 -49.5t21 -49.5t51 -20.5z" />
    <glyph glyph-name="uniE02C" unicode="&#xe02c;" horiz-adv-x="256" d="M-128 448zM128 416q53 0 90.5 -38t37.5 -92q0 -55 -32 -126.5t-64 -115.5l-32 -44q-5 7 -13.5 18.5t-31 46t-39 67.5t-30.5 76t-14 78q0 54 37.5 92t90.5 38zM128 214q29 0 49 20.5t20 49.5t-20.5 50t-48.5 21t-48.5 -21t-20.5 -50t20 -49.5t49 -20.5z" />
    <glyph glyph-name="uniE02D" unicode="&#xe02d;" horiz-adv-x="512" d="M439 82l1 -1v1v0h-1v-1v1zM439 82h1h-1v0zM406 105l-1 1l1 1v2q0 3 1 4q4 6 13 6q12 0 16 -11q-6 8 -14 8q10 -3 13 -13q-7 11 -14 9q-3 0 -3 -4t7 -5h6q7 -2 7 -7q0 -3 -1 -4t0 -4q0 -1 1 -4v-4h-3h-1v2q0 10 -7 10q-11 2 -14 -11v-1h-3v1v4q1 4 1 6q-3 4 -2 7q2 4 2 5q0 2 -1 2h-1l-1 -2v-2l-2 -2q1 1 1 2t-0.5 1t-0.5 1v2zM408 111l1 -1v-1l-1 1v1zM439 81q1 0 1 1t-1 1t-1 -1t1 -1zM439 83l1 -1l-1 -1v1v1zM512 56v-7h-156v-1h-356v203h250v38h-44v47h72v-85h78v-86h133v-109h23zM481 158h-125v-9h21v-3h-21v-4h21v-3h-21v-75h125v94zM213 296h45v-104h12v136h-57v-32zM349 56v188h-71v-60h-28v60h-242v-188h341z" />
    <glyph glyph-name="uniE02E" unicode="&#xe02e;" horiz-adv-x="390" d="M351 232q17 0 28 -11t11 -28t-11 -28t-28 -11h-312q-17 0 -28 11t-11 28t11 28t28 11h312zM39 310q-17 0 -28 11t-11 28t11 28t28 11h312q17 0 28 -11t11 -28t-11 -28t-28 -11h-312zM351 76q17 0 28 -11t11 -28t-11 -28t-28 -11h-312q-17 0 -28 11t-11 28t11 28t28 11h312z" />
    <glyph glyph-name="uniE02F" unicode="&#xe02f;" horiz-adv-x="302" d="M250 448q22 0 37 -15t15 -37v-408q0 -22 -15 -37t-37 -15h-198q-22 0 -37 15t-15 37v408q0 22 15 37t37 15h198zM151 -43q15 0 25.5 7.5t10.5 18.5t-10.5 18.5t-25.5 7.5t-25.5 -7.5t-10.5 -18.5t10.5 -18.5t25.5 -7.5zM260 35v345h-218v-345h218z" />
    <glyph glyph-name="uniE030" unicode="&#xe030;" d="M-32 448zM411 339q37 -32 37 -78.5t-37 -78.5l-187 -166l-187 166q-37 32 -37 78.5t37 78.5q33 29 78.5 29t78.5 -29l30 -26l30 26q33 29 78.5 29t78.5 -29z" />
    <glyph glyph-name="uniE031" unicode="&#xe031;" horiz-adv-x="256" d="M255 12q3 -5 -2 -8l-4 -3q-1 -1 -3 -1q-4 0 -5 3l-9 14q-1 -1 -4 -1q-4 0 -5 3l-4 6l-3 -2l-213 331q-5 6 -3 14q2 7 6 11l1 1l1 1v0q4 3 10 3q5 0 10 -3l13 -1l1 1v-1v0l41 -64l-4 -3l-39 63h-7h1l55 -86l147 -230l10 -16l-2 -2l4 -5q1 -2 1 -6q0 -1 -3 -4zM7 357l53 -82l22 16l-52 82l-3 3h-1q-3 3 -8 3t-7 -2q-11 -7 -4 -20zM207 45l12 8l11 8l-145 226l-23 -16zM210 41l7 -11l23 16l-7 11zM229 21v0l14 10q1 0 1 1v2l-4 5l-17 -12l3 -5q0 -1 2 -1h1zM251 8v2l-9 14l-6 -4l9 -15h1v0z" />
    <glyph glyph-name="uniE032" unicode="&#xe032;" d="M-32 448zM16 371l111 -112q-6 -6 -7.5 -12.5t3.5 -16t8 -14t13 -16.5q33 -42 79 -79q31 -25 44 -31t27 3l109 -108q-6 -7 -20 -12t-41 -4.5t-58.5 10.5t-76 40t-90.5 77q-44 45 -71 87.5t-36.5 72t-9.5 55.5t5 39t11 21zM443 25v0q-30 -32 -32 -32l-108 108l31 34q12 12 24 0l85 -85q13 -12 0 -25zM166 299q-30 -29 -30 -31l-112 111l32 32q12 11 23 0l87 -87q12 -12 0 -25z" />
    <glyph glyph-name="uniE033" unicode="&#xe033;" horiz-adv-x="512" d="M0 448zM256 240q32 0 54.5 -21t22.5 -51t-22.5 -51t-54.5 -21t-54.5 21t-22.5 51t22.5 51t54.5 21zM461 312q21 0 36 -14t15 -34v-216q0 -20 -15 -34t-36 -14h-410q-21 0 -36 14t-15 34v216q0 20 15 34t36 14h62q15 0 20 14l16 44q5 14 20 14h174q15 0 20 -14l16 -44q5 -14 20 -14h62zM256 48q53 0 90.5 35t37.5 85t-37.5 85t-90.5 35t-90.5 -35t-37.5 -85t37.5 -85t90.5 -35zM443 230q7 0 12.5 5t5.5 12t-5.5 12t-12.5 5t-12.5 -5t-5.5 -12t5.5 -12t12.5 -5z" />
    <glyph glyph-name="uniE034" unicode="&#xe034;" horiz-adv-x="374" d="M362 211q12 -8 12 -19q0 -5 -3 -9.5t-6 -6.5l-3 -3l-320 -198q-17 -11 -29.5 -4t-12.5 29v384q0 22 12.5 29t29.5 -4z" />
    <glyph glyph-name="uniE035" unicode="&#xe035;" horiz-adv-x="384" d="M-64 448zM160 384h64v-384h-64v384zM0 224h384v-64h-384v64z" />
    <glyph glyph-name="uniE036" unicode="&#xe036;" d="M-32 448zM351 81q97 -36 97 -61v-52h-448v52q0 25 97 61q44 16 61 34t17 48q0 11 -11 24t-15 37q-1 6 -10.5 12t-11.5 30q0 8 2 13t4 7l2 1q-4 25 -6 44q-2 27 19.5 56t75.5 29t75.5 -29t19.5 -56l-6 -44q8 -4 8 -21q-2 -24 -11.5 -30t-10.5 -12q-4 -24 -15 -37t-11 -24q0 -30 17 -48t61 -34z" />
    <glyph glyph-name="uniE037" unicode="&#xe037;" d="M-32 448zM88 125q13 0 22.5 -8.5t7.5 -19.5q0 -9 -3 -13q-9 -19 -29 -19q-12 0 -21 8.5t-9 21.5q0 24 22 29q2 1 10 1zM114 178v-21h-52v68h24h2h3q17 0 29.5 12.5t12.5 30.5q0 15 -9.5 27t-24.5 16q-3 2 -9 2q-16 0 -29 -10.5t-15 -26.5l-46 21q8 31 33.5 51t59.5 20q59 0 86 -54q10 -22 10 -43q0 -34 -21 -59.5t-54 -33.5zM98 157h6h-6zM430 313q8 0 13 -5.5t5 -12.5v-197q0 -17 -18 -17h-32v-65l-65 65h-155v3q0 40 -36 62v17q35 12 57 42.5t22 67.5q0 19 -8 40h217z" />
    <glyph glyph-name="uniE038" unicode="&#xe038;" horiz-adv-x="512" d="M0 448zM116 60l72 73l1 -183l-173 10l55 54q-72 76 -71 181.5t75 179.5q62 62 150 73l2 -65q-63 -10 -107 -54q-55 -56 -56 -134t52 -135zM324 434l172 -10l-55 -54q72 -76 71 -181.5t-75 -179.5q-62 -62 -150 -73l-2 65q63 10 107 54q55 56 56 134t-52 135l-72 -73v183z" />
    <glyph glyph-name="uniE039" unicode="&#xe039;" d="M-32 448zM261 19l-41 -15l-220 52v290l223 70l214 -48v-190q-46 -74 -86 -78v87l-131 -130zM338 87q22 -10 49.5 10t44 42.5t16.5 26.5v-66q-2 -3 -5.5 -9t-15.5 -20t-24.5 -23.5t-30 -15t-34.5 -0.5v-64l-91 89l91 90v-60z" />
    <glyph glyph-name="uniE03A" unicode="&#xe03a;" horiz-adv-x="224" d="M-32 448zM224 416v-342l-138 -106l47 176l-133 101h163z" />
    <glyph glyph-name="uniE03B" unicode="&#xe03b;" d="M-32 448zM224 416l61 -171h163l-133 -101l47 -176l-138 106l-138 -106l47 176l-133 101h163z" />
    <glyph glyph-name="uniE03C" unicode="&#xe03c;" horiz-adv-x="384" d="M-64 448zM0 384q159 0 271.5 -112.5t112.5 -271.5h-60q0 134 -95 229t-229 95v60zM0 264q110 0 187 -77t77 -187h-60q0 85 -59.5 144.5t-144.5 59.5v60zM57 115q24 0 41 -17t17 -41t-17 -40.5t-41 -16.5t-40.5 16.5t-16.5 40.5t16.5 41t40.5 17z" />
    <glyph glyph-name="uniE03D" unicode="&#xe03d;" horiz-adv-x="416" d="M-48 448zM407 48q17 -18 3 -32l-25 -25q-17 -17 -35 0l-100 100q-38 -22 -82 -22q-68 0 -118 50.5t-50 117.5t48 115t115 48t117.5 -50t50.5 -118q0 -44 -24 -84zM50 237q0 -47 36 -82.5t82 -35.5t79.5 33.5t33.5 79.5t-35.5 82t-82.5 36t-80 -33t-33 -80z" />
    <glyph glyph-name="uniE03E" unicode="&#xe03e;" d="M441 407q17 -48 -4 -89.5t-60 -70.5l8 -11q7 -10 3 -24l-23 -70q-4 -13 -16 -21l-217 -147q-19 -13 -29 1l-99 137q-5 7 -3.5 17t9.5 15l217 147q12 8 25 8h74q15 0 22 -11l13 -18q77 58 53 128q-4 13 9 17t18 -8zM340 197q19 12 15 36q-10 -6 -14 -8q-2 -1 -6 -1q-10 0 -13 8q-5 13 7 18q2 0 11 6q-21 15 -43 0q-13 -8 -15.5 -23t6.5 -27t24 -14.5t28 5.5z" />
    <glyph glyph-name="uniE03F" unicode="&#xe03f;" d="M-32 448zM126 364h322v-155q0 -8 -9 -12l-262 -45q-18 -5 -16.5 -30t22.5 -25h241v-45q0 -10 -10 -10h-52q19 -11 19 -34q0 -16 -11.5 -28t-28.5 -12q-16 0 -27.5 11.5t-11.5 28.5q0 24 18 34h-189q19 -11 19 -34q0 -16 -12 -28t-28 -12t-27.5 11.5t-11.5 28.5q0 25 22 36q-3 3 -3 8v42h27v34l-39 238h-78v40q0 10 9 10h106q4 0 7.5 -3t3.5 -7v-42zM157 194l241 45v74h-264z" />
    <glyph glyph-name="uniE040" unicode="&#xe040;" horiz-adv-x="384" d="M-64 448zM112 192q16 0 16 -16v-64q0 -16 -16 -16t-16 16v64q0 16 16 16zM272 192q16 0 16 -16v-64q0 -16 -16 -16t-16 16v64q0 16 16 16zM176 256h32v-160h-32v160zM0 352h32v-288h-32v288zM32 352h352v-32h-352v32zM352 320h32v-256h-32v256zM32 96h320v-32h-320v32z" />
    <glyph glyph-name="uniE041" unicode="&#xe041;" d="M164 16h-80v217h-84l124 133l122 -133h-82v-217zM284 368h80v-217h84l-124 -133l-122 133h82v217z" />
    <glyph glyph-name="uniE042" unicode="&#xe042;" horiz-adv-x="447" d="M402 316q19 0 32 -13t13 -32v-245q0 -19 -13 -32t-32 -13h-22v335h22zM0 271q0 19 13 32t32 13h22v-335h-22q-19 0 -32 13t-13 32v245zM299 363h1v-47h49v-335h-251v335h49v47q43 20 76 20t76 -20zM273 316v30q-24 10 -50 10q-25 0 -49 -10v-30h99z" />
    <glyph glyph-name="uniE043" unicode="&#xe043;" d="M-32 448zM224 416q93 0 158.5 -65.5t65.5 -158.5t-65.5 -158.5t-158.5 -65.5t-158.5 65.5t-65.5 158.5t65.5 158.5t158.5 65.5zM242 11q64 7 110 52.5t53 110.5h-100v36h100q-7 64 -53 110t-110 53v-100h-36v100q-64 -7 -110 -53t-53 -110h100v-36h-100q7 -65 53 -110.5t110 -52.5v100h36v-100z" />
    <glyph glyph-name="uniE044" unicode="&#xe044;" d="M-32 448zM64 160h64v-96h-64v96zM160 352h64v-288h-64v288zM256 192h64v-128h-64v128zM352 128h64v-64h-64v64zM16 384q16 0 16 -16v-352q0 -16 -16 -16t-16 16v352q0 16 16 16zM32 32h416v-32h-416v32z" />
    <glyph glyph-name="uniE045" unicode="&#xe045;" d="M-32 448zM326 258q0 -1 61 -12t61 -31q0 -36 -34.5 -141.5t-59.5 -105.5q-81 0 -161.5 21t-80.5 44v170q0 4 2.5 9t9 11t12 11.5t16 12.5t17 11.5t19 12.5t17.5 11t17 10t14 8q28 17 58.5 50t47.5 51.5t23 12.5q22 -24 18.5 -51t-17 -48t-27.5 -38t-13 -19zM84 255q7 0 0 -6q-28 -25 -28 -52v-159q0 -26 29 -51q6 -5 -1 -5q-15 0 -31 4t-34.5 22t-18.5 49v121q0 24 10 40.5t25.5 23.5t27.5 10t21 3z" />
    <glyph glyph-name="uniE046" unicode="&#xe046;" horiz-adv-x="480" d="M-16 448zM480 339q-21 -30 -49 -51v-12q0 -105 -76.5 -190.5t-203.5 -85.5q-82 0 -151 44q16 -2 23 -2q68 0 123 42q-32 1 -57 19.5t-35 47.5q12 -2 18 -2q10 0 26 4q-34 7 -56.5 33.5t-22.5 61.5v1q19 -10 45 -12q-44 29 -44 81q0 28 13 48q79 -95 203 -101q-2 7 -2 22q0 40 28.5 68.5t69.5 28.5q43 0 72 -31q31 6 63 24q-10 -34 -44 -54q27 3 57 16z" />
    <glyph glyph-name="uniE047" unicode="&#xe047;" horiz-adv-x="449" d="M312 200q4 -3 4 -8l-4 -8l-131 -81q-7 -4 -12 -1t-5 12v157q0 20 17 10zM225 416q93 0 158.5 -66t65.5 -159t-65.5 -158.5t-158.5 -65.5t-159 65.5t-66 158.5t66 159t159 66zM225 8q76 0 129.5 54t53.5 130t-53.5 129.5t-129.5 53.5t-130 -53.5t-54 -129.5t54 -130t130 -54z" />
    <glyph glyph-name="uniE048" unicode="&#xe048;" horiz-adv-x="384" d="M-64 448zM29 320h230q12 0 20.5 -9.5t8.5 -22.5v-192q0 -13 -8.5 -22.5t-20.5 -9.5h-230q-12 0 -20.5 9.5t-8.5 22.5v192q0 13 8.5 22.5t20.5 9.5zM208 192l176 96v-192z" />
    <glyph glyph-name="uniE049" unicode="&#xe049;" d="M-32 448zM126 38l-78 -54l29 90l-77 55h95l31 90l29 -90h95l-78 -55l31 -90zM172 129h78l-61 -44zM129 289l230 -60v-242l-138 47l-8 27l56 41q15 9 15 27q0 14 -10 24t-24 10h-71l-23 67q-5 20 -27 23v36zM448 261v-239l-45 18v213zM317 296l123 -29l-52 -8l-29 -21l-204 54l59 4l5 3h-1v32q0 36 21 54q16 13 33 10t25 -10q1 1 2 2.5t2 2.5q16 13 34 10q27 -3 38 -26.5t9 -45.5v-35l-18 3v30q0 51 -32 56q-13 3 -21 -5q-1 -1 -2.5 -3t-2.5 -3q11 -18 11 -50v-25zM301 321q0 21 -1 26q-2 -5 -2 -13v-24l-18 3v21q1 18 7 34q-5 5 -18 8t-21 -5q-14 -14 -14 -42v-17l5 3l62 -15v21z" />
    <glyph glyph-name="uniE04A" unicode="&#xe04a;" horiz-adv-x="384" d="M-64 448zM160 384q66 0 113 -47t47 -113t-47 -113t-113 -47t-113 47t-47 113t47 113t113 47zM160 344q-50 0 -85 -35t-35 -85t35 -85t85 -35t85 35t35 85t-35 85t-85 35zM144 304h32v-160h-32v160zM80 240h160v-32h-160v32zM224 114l46 46l114 -114l-46 -46z" />
    <glyph glyph-name="uniE04B" unicode="&#xe04b;" horiz-adv-x="416" d="M-48 448zM9 48l100 100q-24 40 -24 84q0 68 50.5 118t117.5 50t115 -48t48 -115t-50 -117.5t-118 -50.5q-44 0 -82 22l-100 -100q-18 -17 -35 0l-25 25q-14 14 3 32zM366 237q0 47 -33 80t-80 33t-82.5 -36t-35.5 -82t33.5 -79.5t79.5 -33.5t82 35.5t36 82.5z" />
  </font>
</defs>
</svg>
